# xmcd
#
# Track frame offsets:
#	150
#	41473
#	71754
#	103200
#	155997
#	191311
#	217916
#	266610
#	280261
#	294453
#
# Disc length: 4362 seconds
#
# Revision: 1
# Processed by: cddbd v1.5.2PL0 Copyright (c) Steve Scherf et al.
# Submitted via: EZCDAudioConverter 7.0.5.1
#
DISCID=9911080a
DTITLE=Arthur Ancelle - Chopin Dutilleux
DYEAR=2015
DGENRE=
TTITLE0=Frederic Chopin - Ballade No.1 in G minor, Op. 23
TTITLE1=Frederic Chopin - Ballade No.2 in F major, Op. 38
TTITLE2=Frederic Chopin - Ballade No.3 in A flat major, Op. 47
TTITLE3=Frederic Chopin - Ballade No.4 in F minor, Op. 52
TTITLE4=Henri Dutilleux - I. Allegro con moto
TTITLE5=Henri Dutilleux - II. Lied. Assez lent
TTITLE6=Henri Dutilleux - III. Choral et variations. Large
TTITLE7=Trois preludes - D ’ombre et de silence
TTITLE8=Trois preludes - Sur un meme accord
TTITLE9=Trois preludes - Le jeu des contraires
EXTD=
EXTT0=
EXTT1=
EXTT2=
EXTT3=
EXTT4=
EXTT5=
EXTT6=
EXTT7=
EXTT8=
EXTT9=
PLAYORDER=
